<svg id="Capa_1" data-name="Capa 1" xmlns="http://www.w3.org/2000/svg" viewBox="0 0 768.75 214.45"><defs><style>.cls-1{fill:#f8f3d4;}</style></defs><title>logo</title><path class="cls-1" d="M292,313.88c0-62.45,22.76-100.16,54.73-100.16,16.37,0,27.09,12.08,34.05,23.57l-9,15.61c-5.83-9.72-13.17-17.38-25-17.38-23.13,0-38.18,29.75-38.18,77.77,0,48.6,13.73,78.94,37.81,78.94A25,25,0,0,0,367.58,381V330.67H343.13V310.34h39.12v81.31C374.54,404,361.38,414,345.39,414,314.35,414,292,376.92,292,313.88Z" transform="translate(-291.97 -199.59)"/><path class="cls-1" d="M409.91,373.38c0-32.11,19.18-47.72,66.39-53.61-.56-19.44-6.58-35.94-24.26-35.94-11.85,0-23.51,8.84-32,17.09l-6.21-16.5c9.41-9.42,24.83-20.62,40.82-20.62,25,0,37.24,23.27,37.24,58.92V410.5h-13l-1.32-19.44h-.57c-10,12.37-23.13,23-35.92,23C424,414,409.91,399,409.91,373.38Zm66.39-.29V336c-39.12,4.71-51,16.79-51,35.64,0,16.21,9.4,22.69,19.94,22.69C455.61,394.3,465.77,386.64,476.3,373.09Z" transform="translate(-291.97 -199.59)"/><path class="cls-1" d="M554,362.48v-142H521.63V200.76h48V364.25c0,20.62,7.15,29.46,18.06,29.46,5.26,0,10.9-2.06,17.11-6.48l4,18.26c-8.46,5.6-14.48,8.54-24.45,8.54C564.71,414,554,396.36,554,362.48Z" transform="translate(-291.97 -199.59)"/><path class="cls-1" d="M679.82,287.07H637.5V267.34h57.93V410.5H679.82Zm-6.21-68.63c0-11.2,5.27-18.85,12.42-18.85s12.41,7.65,12.41,18.85c0,11.49-5.26,18.85-12.41,18.85S673.61,229.93,673.61,218.44Z" transform="translate(-291.97 -199.59)"/><path class="cls-1" d="M779.7,362.48v-142H747.35V200.76h48V364.25c0,20.62,7.15,29.46,18.06,29.46,5.27,0,10.91-2.06,17.12-6.48l4,18.26C826,411.09,820,414,810,414,790.42,414,779.7,396.36,779.7,362.48Z" transform="translate(-291.97 -199.59)"/><path class="cls-1" d="M859.08,338.62c0-46.54,22.19-74.82,46.64-74.82,26.34,0,41.76,26.81,41.76,67.16,0,5.6-.37,10.9-.75,14.73H869.42V326.84h68.09l-4,6.78c0-33.88-10.72-50.67-27.46-50.67-16.93,0-31.6,20-31.6,55.67,0,37.12,15.42,56,35.74,56,10.91,0,19.56-5.3,27.84-13.55L943.72,397c-9,9.42-20.69,17.08-35.36,17.08C880.9,414,859.08,386.34,859.08,338.62Z" transform="translate(-291.97 -199.59)"/><path class="cls-1" d="M970.43,339.21c0-48,21.07-75.41,45.14-75.41s45.14,27.4,45.14,75.41c0,47.43-21.06,74.82-45.14,74.82S970.43,386.64,970.43,339.21Zm74.3,0c0-33-11.67-55.08-29.16-55.08s-29.15,22.09-29.15,55.08c0,32.7,11.66,54.5,29.15,54.5S1044.73,371.91,1044.73,339.21Z" transform="translate(-291.97 -199.59)"/></svg>